<svg width="512" height="63" viewBox="0 0 512 63" fill="none" xmlns="http://www.w3.org/2000/svg">
<path d="M8 40.9523L0 32.3405L8 23.7287H20.9444H41.1667V44.5405V51.5L50.5 61.764H32.1389H23.1111V40.9523H8Z" fill="url(#paint0_linear_14_48)"/>
<path d="M47.6667 17.9876L8 17.2699L0 9.01698L8 0.764038H44.0556H65V17.9876V51.5V56.5V61.764H56.3333L47 51.5L47.6667 17.9876Z" fill="url(#paint1_linear_14_48)"/>
<path d="M65 61.764L320.5 61.5V56.5H70H65V61.764Z" fill="url(#paint2_linear_14_48)"/>
<path d="M65 56.5H70L65 51.5V56.5Z" fill="url(#paint3_linear_14_48)"/>
<path d="M81 48.448V0.767998L89.704 13.632V48.448H81Z" fill="url(#paint4_linear_14_48)"/>
<path d="M98.171 48.448V13.632H106.043V21.696V20C106.683 17.4827 107.067 15.9573 108.987 14.72C110.907 13.4827 113.168 12.864 115.771 12.864C118.63 12.864 121.147 13.6107 123.323 15.104C125.499 16.5973 125.975 17.068 126.615 19.5C127.681 16.7267 127.846 16.3413 129.979 14.976C132.112 13.568 134.566 12.864 137.339 12.864C139.814 12.864 142.011 13.4187 143.931 14.528C145.894 15.6373 147.43 17.1947 148.539 19.2C149.648 21.1627 150.203 23.4453 150.203 26.048V48.448H141.819V28.032C141.819 26.496 141.542 25.1733 140.987 24.064C140.432 22.9547 139.664 22.1013 138.683 21.504C137.702 20.864 136.507 20.544 135.099 20.544C133.776 20.544 132.603 20.864 131.579 21.504C130.555 22.1013 129.766 22.9547 129.211 24.064C128.656 25.1733 128.379 26.496 128.379 28.032V48.448H119.995V28.032C119.995 26.496 119.718 25.1733 119.163 24.064C118.608 22.9547 117.819 22.1013 116.795 21.504C115.814 20.864 114.64 20.544 113.275 20.544C111.952 20.544 110.779 20.864 109.755 21.504C108.731 22.1013 107.942 22.9547 107.387 24.064C106.832 25.1733 106.555 26.496 106.555 28.032V48.448H98.171Z" fill="url(#paint5_linear_14_48)"/>
<path d="M167.856 49.216C165.424 49.216 163.312 48.8107 161.52 48C159.728 47.1893 158.341 46.0373 157.36 44.544C156.379 43.008 155.888 41.2373 155.888 39.232C155.888 37.312 156.315 35.6053 157.168 34.112C158.021 32.576 159.344 31.296 161.136 30.272C162.928 29.248 165.189 28.5227 167.92 28.096L178.288 26.5V33L169.52 34.304C167.856 34.6027 166.619 35.136 165.808 35.904C164.997 36.672 164.592 37.6747 164.592 38.912C164.592 40.1067 165.04 41.0667 165.936 41.792C166.875 42.4747 168.027 42.816 169.392 42.816C171.141 42.816 172.677 42.4533 174 41.728C175.365 40.96 176.411 39.9147 177.136 38.592C177.904 37.2693 178.288 35.8187 178.288 34.24V25.28C178.288 23.7867 177.691 22.5493 176.496 21.568C175.344 20.544 173.808 20.032 171.888 20.032C170.096 20.032 168.496 20.5227 167.088 21.504C165.723 22.4427 164.72 23.7013 164.08 25.28L157.232 21.952C157.915 20.1173 158.981 18.5387 160.432 17.216C161.925 15.8507 163.675 14.784 165.68 14.016C167.685 13.248 169.861 12.864 172.208 12.864C175.067 12.864 177.584 13.3973 179.76 14.464C181.936 15.488 183.621 16.9387 184.816 18.816C186.053 20.6507 186.672 22.8053 186.672 25.28V48.448H178.736L178.615 44.5H178.736C177.84 45.9933 178.565 45.12 177.328 46.144C176.091 47.1253 174.683 47.8933 173.104 48.448C171.525 48.96 169.776 49.216 167.856 49.216Z" fill="url(#paint6_linear_14_48)"/>
<path d="M211.317 62.528C208.714 62.528 206.304 62.1013 204.085 61.248C201.866 60.3947 199.946 59.2 198.325 57.664C196.746 56.1707 195.594 54.4 194.869 52.352L202.677 49.408C203.189 51.0293 204.192 52.3307 205.685 53.312C207.221 54.336 209.098 54.848 211.317 54.848C213.024 54.848 214.517 54.528 215.797 53.888C217.12 53.248 218.144 52.3093 218.869 51.072C219.594 49.8773 219.957 48.4267 219.957 46.72L220.115 42.5L221.557 40.704C219.615 43 218.762 44.3733 216.757 45.44C214.752 46.5067 212.469 47.04 209.909 47.04C206.666 47.04 203.765 46.2933 201.205 44.8C198.645 43.3067 196.64 41.2587 195.189 38.656C193.738 36.0533 193.013 33.1307 193.013 29.888C193.013 26.6027 193.738 23.68 195.189 21.12C196.64 18.56 198.624 16.5547 201.141 15.104C203.658 13.6107 206.517 12.864 209.717 12.864C212.32 12.864 214.602 13.4187 216.565 14.528C218.57 15.5947 219.292 15.8072 220.615 17.8552H220.405V13.632H228.341V46.72C228.341 49.7493 227.594 52.4587 226.101 54.848C224.65 57.2373 222.645 59.1147 220.085 60.48C217.568 61.8453 214.645 62.528 211.317 62.528ZM210.933 39.296C212.725 39.296 214.282 38.912 215.605 38.144C216.97 37.3333 218.037 36.224 218.805 34.816C219.573 33.408 219.957 31.7867 219.957 29.952C219.957 28.16 219.552 26.56 218.741 25.152C217.973 23.7013 216.906 22.5707 215.541 21.76C214.218 20.9493 212.682 20.544 210.933 20.544C209.184 20.544 207.605 20.9493 206.197 21.76C204.789 22.5707 203.68 23.7013 202.869 25.152C202.101 26.56 201.717 28.16 201.717 29.952C201.717 31.744 202.101 33.344 202.869 34.752C203.68 36.16 204.768 37.2693 206.133 38.08C207.541 38.8907 209.141 39.296 210.933 39.296Z" fill="url(#paint7_linear_14_48)"/>
<path d="M236.171 48.448V13.632H244.555V48.448H236.171ZM236.171 9.728L240.115 0.767998L244.555 9.728H236.171Z" fill="url(#paint8_linear_14_48)"/>
<path d="M252.296 48.448V13.632H260.168V17.9038L259.528 19.264C260.339 17.1733 261.661 15.5947 263.496 14.528C265.373 13.4187 267.549 12.864 270.024 12.864C272.584 12.864 274.845 13.4187 276.808 14.528C278.813 15.6373 280.371 17.1947 281.48 19.2C282.589 21.1627 283.144 23.4453 283.144 26.048V48.448H274.76V28.032C274.76 26.496 274.461 25.1733 273.864 24.064C273.267 22.9547 272.435 22.1013 271.368 21.504C270.344 20.864 269.128 20.544 267.72 20.544C266.355 20.544 265.139 20.864 264.072 21.504C263.005 22.1013 262.173 22.9547 261.576 24.064C260.979 25.1733 260.68 26.496 260.68 28.032V48.448H252.296Z" fill="url(#paint9_linear_14_48)"/>
<path d="M306.745 49.216C303.161 49.216 300.025 48.4053 297.337 46.784C294.649 45.1627 292.559 42.9653 291.066 40.192C289.572 37.4187 288.826 34.3467 288.826 30.976C288.826 27.4773 289.572 24.384 291.066 21.696C292.602 18.9653 294.671 16.8107 297.273 15.232C299.919 13.6533 302.863 12.864 306.105 12.864C308.836 12.864 311.225 13.312 313.273 14.208C315.364 15.104 317.135 16.3413 318.585 17.92C320.036 19.4987 321.145 21.312 321.913 23.36C322.681 25.3653 323.066 27.5413 323.066 29.888C323.066 30.4853 323.023 31.104 322.938 31.744C322.895 32.384 322.788 32.9387 322.618 33.408L297.529 33.376V27.008H314.115L313.913 30.016C314.108 27.1027 314.191 26.304 313.594 24.768C313.039 23.232 312.1 22.016 310.777 21.12C309.497 20.224 307.94 19.776 306.105 19.776C304.356 19.776 302.799 20.224 301.434 21.12C300.068 21.9733 299.023 23.2533 298.298 24.96C297.615 26.624 297.359 28.6507 297.529 31.04C297.359 33.1733 297.636 35.072 298.361 36.736C299.129 38.3573 300.239 39.616 301.689 40.512C303.183 41.408 304.889 41.856 306.809 41.856C308.729 41.856 310.351 41.4507 311.674 40.64C313.039 39.8293 314.106 38.7413 314.874 37.376L321.658 40.704C320.975 42.368 319.908 43.84 318.458 45.12C317.007 46.4 315.279 47.4027 313.273 48.128C311.311 48.8533 309.135 49.216 306.745 49.216Z" fill="url(#paint10_linear_14_48)"/>
<path d="M331 48.448V17.8552V0.767998H346.552C351.587 0.767998 355.96 1.792 359.672 3.84C363.427 5.84533 366.328 8.64 368.376 12.224C370.424 15.7653 371.448 19.8827 371.448 24.576C371.448 29.2267 370.424 33.3653 368.376 36.992C366.328 40.576 363.427 43.392 359.672 45.44C355.96 47.4453 351.587 48.448 346.552 48.448H331ZM339.704 40.768H346.744C349.987 40.768 352.781 40.1067 355.128 38.784C356.956 37.7396 358.471 36.3956 359.675 34.752C360.045 34.247 360.385 33.7136 360.696 33.152C362.019 30.72 362.68 27.8613 362.68 24.576C362.68 21.248 362.019 18.3893 360.696 16C359.373 13.6107 357.517 11.7547 355.128 10.432C352.781 9.10933 349.987 8.448 346.744 8.448H339.704V21.504V40.768Z" fill="url(#paint11_linear_14_48)"/>
<path d="M426.729 48.448L413.034 13.632H422.185L432.105 41.024L430.648 37L438.698 13.632H447.849L437.074 41.024L434.154 48.448H426.729Z" fill="url(#paint12_linear_14_48)"/>
<path d="M452.483 48.448V39.5V13.632H460.867V36.736V48.448H452.483ZM452.483 9.728L456.615 0.767998L460.867 9.728H452.483Z" fill="url(#paint13_linear_14_48)"/>
<path d="M468.608 48.448V9.728L476.992 0V31.04V48.448H468.608Z" fill="url(#paint14_linear_14_48)"/>
<path d="M497.982 49.216C494.27 49.216 491.027 48.3413 488.254 46.592C485.523 44.8 485.309 41.0293 484.285 38C485.181 39.9627 491.027 39.8507 492.605 40.96C494.227 42.0693 496.019 42.624 497.982 42.624C499.518 42.624 500.733 42.2827 501.629 41.6C502.525 40.9173 502.974 40.0213 502.974 38.912C502.974 38.2293 502.781 37.6747 502.397 37.248C502.056 36.7787 501.566 36.3947 500.926 36.096C500.328 35.7547 499.667 35.4773 498.941 35.264L493.246 33.664C490.302 32.8107 488.062 31.5093 486.526 29.76C485.926 29.0582 485.447 28.3048 485.089 27.5C484.553 26.2987 484.285 24.9827 484.285 23.552C484.285 21.4187 484.819 19.5627 485.885 17.984C486.995 16.3627 488.51 15.104 490.43 14.208C492.392 13.312 494.632 12.864 497.15 12.864C500.435 12.864 503.336 13.6533 505.854 15.232C508.371 16.8107 507.016 20.3093 508.083 23.168L508.115 23.552C507.517 21.9733 503.23 22.0587 501.822 21.12C500.414 20.1813 498.835 19.712 497.086 19.712C495.678 19.712 494.568 20.032 493.758 20.672C492.947 21.312 492.542 22.144 492.542 23.168C492.542 23.808 492.712 24.3627 493.053 24.832C493.395 25.3013 493.864 25.6853 494.461 25.984C495.101 26.2827 495.827 26.56 496.638 26.816L502.206 28.48C505.064 29.3333 507.261 30.6133 508.797 32.32C510.376 34.0267 511.165 36.1173 511.165 38.592C511.165 40.6827 510.611 42.5387 509.501 44.16C508.392 45.7387 506.856 46.976 504.893 47.872C502.931 48.768 500.627 49.216 497.982 49.216Z" fill="url(#paint15_linear_14_48)"/>
<path fill-rule="evenodd" clip-rule="evenodd" d="M384.775 46.784C387.463 48.4053 390.599 49.216 394.183 49.216C396.572 49.216 398.748 48.8533 400.711 48.128C402.716 47.4027 404.444 46.4 405.895 45.12C407.346 43.84 408.412 42.368 409.095 40.704L402.311 37.376C401.543 38.7413 400.476 39.8293 399.111 40.64C397.788 41.4507 396.167 41.856 394.247 41.856C392.327 41.856 390.62 41.408 389.127 40.512C387.676 39.616 386.567 38.3573 385.799 36.736C385.354 35.715 385.078 34.6057 384.97 33.408H410.055C410.226 32.9387 410.332 32.384 410.375 31.744C410.46 31.104 410.503 30.4853 410.503 29.888C410.503 27.5413 410.119 25.3653 409.351 23.36C408.583 21.312 407.474 19.4987 406.023 17.92C404.572 16.3413 402.802 15.104 400.711 14.208C398.663 13.312 396.274 12.864 393.543 12.864C390.3 12.864 387.356 13.6533 384.711 15.232C382.108 16.8107 380.039 18.9653 378.503 21.696C377.01 24.384 376.263 27.4773 376.263 30.976C376.263 34.3467 377.01 37.4187 378.503 40.192C379.996 42.9653 382.087 45.1627 384.775 46.784ZM384.968 28.3395C384.899 29.1813 384.899 30.0815 384.967 31.04C384.903 31.84 384.902 32.607 384.964 33.341C384.966 33.3634 384.968 33.3857 384.97 33.408L384.968 28.3395ZM385.144 27.0001C385.066 27.419 385.008 27.8548 384.97 28.3076C384.969 28.3182 384.968 28.3289 384.968 28.3395L384.967 27L385.144 27.0001ZM385.144 27.0001C385.28 26.2683 385.477 25.5883 385.735 24.96C386.46 23.2533 387.506 21.9733 388.871 21.12C389.234 20.8819 389.61 20.6755 390 20.5007C391.077 20.0176 392.258 19.776 393.543 19.776C395.378 19.776 396.935 20.224 398.215 21.12C399.538 22.016 400.476 23.232 401.031 24.768C401.389 25.6893 401.528 25.9486 401.581 26.2244C401.617 26.4085 401.615 26.5998 401.615 27L402.115 27.008L398.215 27.0062L385.144 27.0001Z" fill="url(#paint16_linear_14_48)"/>
<path d="M384.967 31.04C384.903 31.84 384.902 32.607 384.964 33.341C384.966 33.3634 384.968 33.3857 384.97 33.408L384.968 28.3395C384.899 29.1813 384.899 30.0815 384.967 31.04Z" fill="url(#paint17_linear_14_48)"/>
<defs>
<linearGradient id="paint0_linear_14_48" x1="31.5" y1="24.5" x2="32" y2="62" gradientUnits="userSpaceOnUse">
<stop stop-color="#E8DFF4"/>
<stop offset="1" stop-color="#DACAEE"/>
</linearGradient>
<linearGradient id="paint1_linear_14_48" x1="160.25" y1="0.764038" x2="160.25" y2="61.764" gradientUnits="userSpaceOnUse">
<stop stop-color="#8643E4"/>
<stop offset="1" stop-color="#7137E1"/>
</linearGradient>
<linearGradient id="paint2_linear_14_48" x1="160.25" y1="0.764038" x2="160.25" y2="61.764" gradientUnits="userSpaceOnUse">
<stop stop-color="#8643E4"/>
<stop offset="1" stop-color="#7137E1"/>
</linearGradient>
<linearGradient id="paint3_linear_14_48" x1="160.25" y1="0.764038" x2="160.25" y2="61.764" gradientUnits="userSpaceOnUse">
<stop stop-color="#8643E4"/>
<stop offset="1" stop-color="#7137E1"/>
</linearGradient>
<linearGradient id="paint4_linear_14_48" x1="296.083" y1="0" x2="296.083" y2="62.528" gradientUnits="userSpaceOnUse">
<stop stop-color="#F3EEFA"/>
<stop offset="1" stop-color="#E5DAF7"/>
</linearGradient>
<linearGradient id="paint5_linear_14_48" x1="296.083" y1="0" x2="296.083" y2="62.528" gradientUnits="userSpaceOnUse">
<stop stop-color="#F3EEFA"/>
<stop offset="1" stop-color="#E5DAF7"/>
</linearGradient>
<linearGradient id="paint6_linear_14_48" x1="296.083" y1="0" x2="296.083" y2="62.528" gradientUnits="userSpaceOnUse">
<stop stop-color="#F3EEFA"/>
<stop offset="1" stop-color="#E5DAF7"/>
</linearGradient>
<linearGradient id="paint7_linear_14_48" x1="296.083" y1="0" x2="296.083" y2="62.528" gradientUnits="userSpaceOnUse">
<stop stop-color="#F3EEFA"/>
<stop offset="1" stop-color="#E5DAF7"/>
</linearGradient>
<linearGradient id="paint8_linear_14_48" x1="296.083" y1="0" x2="296.083" y2="62.528" gradientUnits="userSpaceOnUse">
<stop stop-color="#F3EEFA"/>
<stop offset="1" stop-color="#E5DAF7"/>
</linearGradient>
<linearGradient id="paint9_linear_14_48" x1="296.083" y1="0" x2="296.083" y2="62.528" gradientUnits="userSpaceOnUse">
<stop stop-color="#F3EEFA"/>
<stop offset="1" stop-color="#E5DAF7"/>
</linearGradient>
<linearGradient id="paint10_linear_14_48" x1="296.083" y1="0" x2="296.083" y2="62.528" gradientUnits="userSpaceOnUse">
<stop stop-color="#F3EEFA"/>
<stop offset="1" stop-color="#E5DAF7"/>
</linearGradient>
<linearGradient id="paint11_linear_14_48" x1="296.083" y1="0" x2="296.083" y2="62.528" gradientUnits="userSpaceOnUse">
<stop stop-color="#8744E4"/>
<stop offset="1" stop-color="#6832E0"/>
</linearGradient>
<linearGradient id="paint12_linear_14_48" x1="296.083" y1="0" x2="296.083" y2="62.528" gradientUnits="userSpaceOnUse">
<stop stop-color="#8744E4"/>
<stop offset="1" stop-color="#6832E0"/>
</linearGradient>
<linearGradient id="paint13_linear_14_48" x1="296.083" y1="0" x2="296.083" y2="62.528" gradientUnits="userSpaceOnUse">
<stop stop-color="#8744E4"/>
<stop offset="1" stop-color="#6832E0"/>
</linearGradient>
<linearGradient id="paint14_linear_14_48" x1="296.083" y1="0" x2="296.083" y2="62.528" gradientUnits="userSpaceOnUse">
<stop stop-color="#8744E4"/>
<stop offset="1" stop-color="#6832E0"/>
</linearGradient>
<linearGradient id="paint15_linear_14_48" x1="296.083" y1="0" x2="296.083" y2="62.528" gradientUnits="userSpaceOnUse">
<stop stop-color="#8744E4"/>
<stop offset="1" stop-color="#6832E0"/>
</linearGradient>
<linearGradient id="paint16_linear_14_48" x1="296.083" y1="0" x2="296.083" y2="62.528" gradientUnits="userSpaceOnUse">
<stop stop-color="#8744E4"/>
<stop offset="1" stop-color="#6832E0"/>
</linearGradient>
<linearGradient id="paint17_linear_14_48" x1="296.083" y1="0" x2="296.083" y2="62.528" gradientUnits="userSpaceOnUse">
<stop stop-color="#8744E4"/>
<stop offset="1" stop-color="#6832E0"/>
</linearGradient>
</defs>
</svg>
